<?xml version="1.0" encoding="UTF-8"?>
<svg version="1.1" xmlns="http://www.w3.org/2000/svg" width="1000" height="250">
<path d="M0 0 C58.74 0 117.48 0 178 0 C178 23.4248366 178 23.4248366 174 34 C173.62617188 35.01191406 173.25234375 36.02382813 172.8671875 37.06640625 C162.26233814 63.9999144 144.77785834 83.22549872 119.5 96.75 C118.62142334 97.22268311 117.74284668 97.69536621 116.83764648 98.18237305 C105.20420912 104.2436466 92.81806685 107.34542296 79.69482422 107.22705078 C78.36973941 107.22741239 78.36973941 107.22741239 77.01788521 107.2277813 C74.19671191 107.22630465 71.37581267 107.21114866 68.5546875 107.1953125 C66.79760871 107.19236694 65.04052816 107.19032966 63.28344727 107.18920898 C56.81393784 107.17878111 50.34446615 107.15085864 43.875 107.125 C29.39625 107.08375 14.9175 107.0425 0 107 C0 71.69 0 36.38 0 0 Z " fill="#8C66DA" transform="translate(0,0)"/>
<path d="M0 0 C14.128125 0.061875 28.25625 0.12375 42.8125 0.1875 C49.44436401 0.19753052 49.44436401 0.19753052 56.21020508 0.20776367 C61.71032715 0.24865723 61.71032715 0.24865723 64.30473328 0.27412415 C66.07385588 0.28699712 67.84306483 0.29052428 69.61222839 0.28596497 C86.6616675 0.25441176 102.49816134 2.98577213 117.875 10.6875 C119.18658081 11.32933228 119.18658081 11.32933228 120.5246582 11.98413086 C128.1381027 15.83269295 134.580773 20.38765908 141 26 C142.38445312 27.17949219 142.38445312 27.17949219 143.796875 28.3828125 C163.98645763 46.00389793 174.23445211 70.63332013 177 97 C177.08199495 98.81112374 177.13065669 100.62452996 177.125 102.4375 C177.12757813 103.28183594 177.13015625 104.12617188 177.1328125 104.99609375 C177 107 177 107 176 108 C173.73442613 108.09707611 171.46575698 108.12186621 169.19810486 108.12025452 C168.1187654 108.12153615 168.1187654 108.12153615 167.0176211 108.12284368 C164.5884642 108.1245006 162.15937523 108.11897368 159.73022461 108.11352539 C157.99610903 108.11324354 156.26199332 108.11340121 154.52787781 108.1139679 C149.80493679 108.11425595 145.08202094 108.10835799 140.3590858 108.10139394 C135.4289721 108.09516166 130.49885788 108.0945567 125.56874084 108.09336853 C116.22603638 108.09025484 106.88334356 108.08204095 97.54064423 108.07201904 C84.92067365 108.05877417 72.30069991 108.0533583 59.68072414 108.04751682 C39.7871407 108.03810108 19.89358183 108.01818241 0 108 C0 72.36 0 36.72 0 0 Z " fill="#8E68DA" transform="translate(0,142)"/>
<path d="M0 0 C6.27 0 12.54 0 19 0 C19.66644531 1.78019531 20.33289063 3.56039062 21.01953125 5.39453125 C21.94948135 7.86758537 22.88024176 10.34031659 23.8125 12.8125 C24.05754272 13.46259033 24.30258545 14.11268066 24.55505371 14.7824707 C28.13216963 24.2553003 31.87083153 33.64591421 35.75 43 C39.40697577 51.83790516 42.70898051 60.70189697 45.6340332 69.80737305 C48.06734273 77.36116023 50.93117273 84.68202727 54 92 C56.6223778 86.55352302 58.66566414 81.06585281 60.5 75.3125 C63.18087121 66.98712782 66.38935825 58.90984249 69.6875 50.8125 C74.6569251 38.61010504 79.20456503 26.29825752 83.5222168 13.85083008 C83.95058838 12.61872803 84.37895996 11.38662598 84.8203125 10.1171875 C85.38129639 8.48692627 85.38129639 8.48692627 85.95361328 6.82373047 C87 4 87 4 89 0 C94.94 0 100.88 0 107 0 C108.22093318 2.44186635 108.12580305 4.00810308 108.12698364 6.73802185 C108.13121338 8.23756912 108.13121338 8.23756912 108.13552856 9.76741028 C108.13249222 11.41866158 108.13249222 11.41866158 108.12939453 13.10327148 C108.13202301 14.83749359 108.13202301 14.83749359 108.13470459 16.60675049 C108.13912122 20.44487999 108.13618557 24.28296375 108.1328125 28.12109375 C108.13348564 30.77905841 108.1344541 33.43702166 108.13571167 36.09498596 C108.13753242 41.67278543 108.1351298 47.25057168 108.13037109 52.82836914 C108.12493132 59.27899278 108.12668944 65.7295848 108.1321975 72.18020767 C108.1367345 77.71485904 108.13737621 83.24950089 108.13475883 88.78415352 C108.13319895 92.09131704 108.13338633 95.39846241 108.13629532 98.70562553 C108.13882634 102.39288362 108.13497467 106.08008047 108.12939453 109.76733398 C108.13141876 110.86614395 108.13344299 111.96495392 108.13552856 113.09706116 C108.13270874 114.09957916 108.12988892 115.10209717 108.12698364 116.13499451 C108.1264181 117.44327036 108.1264181 117.44327036 108.12584114 118.77797604 C108 121 108 121 107 124 C102.05 124 97.1 124 92 124 C91.97494385 122.62263672 91.9498877 121.24527344 91.92407227 119.82617188 C91.44272234 93.54507076 90.93722203 67.26933911 90 41 C86.57438487 49.25573247 83.46252167 57.45136124 80.921875 66.03125 C79.83762781 69.5228935 78.51823085 72.86231963 77.12109375 76.23828125 C75.74256276 79.63417466 74.46383066 83.06481389 73.1875 86.5 C71.53574968 90.94234463 69.86191634 95.37377683 68.12890625 99.78515625 C67.81606689 100.58179688 67.50322754 101.3784375 67.1809082 102.19921875 C66.57679028 103.73288293 65.97001245 105.26550302 65.36010742 106.796875 C63.64554977 111.15092948 62.21186311 115.47927536 61 120 C56.71 120 52.42 120 48 120 C44.89203623 114.33253665 42.46533461 108.7126794 40.5 102.5625 C36.98538196 91.58205493 32.89459364 80.81915805 28.84570312 70.02758789 C28.57282471 69.29879425 28.29994629 68.57000061 28.01879883 67.81912231 C27.51697707 66.4796357 27.01377237 65.1406655 26.50854492 63.80245972 C23.54954992 55.90928855 20.80724994 47.95387483 18 40 C17.34 67.72 16.68 95.44 16 124 C10.72 124 5.44 124 0 124 C0 83.08 0 42.16 0 0 Z " fill="#141414" transform="translate(470,64)"/>
<path d="M0 0 C5.61 0 11.22 0 17 0 C24.82757862 14.83978447 30.41489031 30.40044717 35.984375 46.19921875 C36.78289542 48.40129237 37.61936778 50.54538586 38.5625 52.6875 C39.73747609 55.3950536 40.76894879 58.07555585 41.76171875 60.8515625 C44.16489698 67.49971476 46.70272866 74.09347345 49.25 80.6875 C49.70890625 81.87794922 50.1678125 83.06839844 50.640625 84.29492188 C51.75948851 87.19697411 52.87929623 90.09865805 54 93 C54.36609375 91.84371094 54.7321875 90.68742187 55.109375 89.49609375 C58.87223057 77.82275743 63.10766704 66.37122367 67.58978271 54.95828247 C71.80358981 44.22284061 75.77868322 33.43167438 79.52661133 22.52319336 C82.23720446 14.74653411 85.45955081 7.4380042 89 0 C94.61 0 100.22 0 106 0 C106.72804217 3.64021083 107.12536213 6.33506261 107.12698364 9.94020081 C107.13121338 11.3932814 107.13121338 11.3932814 107.13552856 12.87571716 C107.13249222 14.45232872 107.13249222 14.45232872 107.12939453 16.06079102 C107.13202301 17.73473938 107.13202301 17.73473938 107.13470459 19.44250488 C107.13910428 23.12965451 107.1361919 26.81675614 107.1328125 30.50390625 C107.13348603 33.06550608 107.13445647 35.62710584 107.13571167 38.18870544 C107.13718605 43.55606758 107.13513765 48.92341252 107.13037109 54.29077148 C107.1249265 60.49320598 107.12669423 66.69560761 107.1321975 72.89804131 C107.13728393 78.8701146 107.13674355 84.8421777 107.13381577 90.81425285 C107.1331479 93.35362693 107.13397003 95.89300185 107.13629532 98.43237495 C107.13882953 101.97780722 107.13497041 105.52317599 107.12939453 109.06860352 C107.13141876 110.12170212 107.13344299 111.17480072 107.13552856 112.2598114 C107.13270874 113.22571198 107.12988892 114.19161255 107.12698364 115.18678284 C107.1264181 116.44358526 107.1264181 116.44358526 107.12584114 117.72577763 C107 120 107 120 106 124 C101.38 124 96.76 124 92 124 C91.97494385 122.59758057 91.9498877 121.19516113 91.92407227 119.75024414 C91.43984863 92.8280186 90.92704391 65.91110097 90 39 C85.21993419 51.8425919 85.21993419 51.8425919 80.66357422 64.765625 C77.35673388 74.39743736 73.80954072 83.93267883 70.18780518 93.44967651 C69.60975827 94.96879798 69.03303114 96.48842237 68.45770264 98.00857544 C62.8044603 112.92796187 62.8044603 112.92796187 59 120 C55.04 120 51.08 120 47 120 C42.32814845 108.65584983 37.97493105 97.25974265 34.00415039 85.65112305 C31.50156441 78.36326527 28.83716539 71.15170283 26.05273438 63.96704102 C22.58987388 55.01975315 19.30377763 46.00693711 16 37 C15.98969254 38.0014505 15.97938507 39.002901 15.96876526 40.03469849 C15.87093319 49.48065311 15.76819003 58.9265433 15.66066074 68.37239265 C15.60553857 73.22838251 15.55213596 78.0843785 15.50268555 82.94042969 C15.45488375 87.62833625 15.40253575 92.31617218 15.34705925 97.00399399 C15.32670719 98.79089469 15.3079826 100.57781471 15.29092598 102.36474991 C15.26672306 104.87100436 15.23669112 107.37712718 15.20532227 109.88330078 C15.1995668 110.61913895 15.19381134 111.35497711 15.18788147 112.1131134 C15.12919084 116.24890101 14.68843127 119.86941238 14 124 C9.38 124 4.76 124 0 124 C0 83.08 0 42.16 0 0 Z " fill="#101010" transform="translate(309,64)"/>
<path d="M0 0 C4.95 0 9.9 0 15 0 C15 17.82 15 35.64 15 54 C32.82 54 50.64 54 69 54 C69 36.18 69 18.36 69 0 C73.95 0 78.9 0 84 0 C84 40.92 84 81.84 84 124 C79.05 124 74.1 124 69 124 C69 105.52 69 87.04 69 68 C51.18 68 33.36 68 15 68 C15 86.48 15 104.96 15 124 C10.05 124 5.1 124 0 124 C0 83.08 0 42.16 0 0 Z " fill="#131313" transform="translate(202,64)"/>
<path d="M0 0 C4.62 0 9.24 0 14 0 C15.28314262 15.36334156 16.33809366 30.57917232 16 46 C16.50789062 45.51789063 17.01578125 45.03578125 17.5390625 44.5390625 C18.22742188 43.90742187 18.91578125 43.27578125 19.625 42.625 C20.29789063 41.99851563 20.97078125 41.37203125 21.6640625 40.7265625 C29.12590529 35.2112874 40.1547733 35.87704417 49 37 C56.25146557 39.36782549 61.29352629 44.42995782 65 51 C67.69720478 56.42575243 68.53266029 60.83435382 68.71484375 66.859375 C68.74899887 67.71859558 68.78315399 68.57781616 68.81834412 69.46307373 C69.19347785 80.72648762 68.86095553 91.98861798 68.5625 103.25 C68.50909308 105.4713381 68.45635514 107.69269239 68.40429688 109.9140625 C68.2772104 115.27625883 68.14118538 120.63815714 68 126 C62.72 126 57.44 126 52 126 C51.97494385 124.3507251 51.9498877 122.7014502 51.92407227 121.00219727 C51.82958871 114.85759293 51.72946935 108.7130909 51.62768555 102.56860352 C51.58401504 99.9140029 51.54280595 97.25939673 51.50268555 94.60473633 C51.44460614 90.7793831 51.38102176 86.95415399 51.31640625 83.12890625 C51.29969376 81.95042618 51.28298126 80.77194611 51.26576233 79.55775452 C51.54418199 68.96216649 51.54418199 68.96216649 48.96217346 58.94190979 C48 57 48 57 48 54 C39.3232144 52.38207306 29.78097896 51.19897043 22 56 C16.41879277 61.58120723 15.70504822 67.81149069 15.62109375 75.4140625 C15.6044165 76.21830154 15.58773926 77.02254059 15.57055664 77.85115051 C15.53593681 79.56181318 15.50542824 81.27256329 15.47872925 82.98336792 C15.40996817 87.38901383 15.31240831 91.79404438 15.21875 96.19921875 C15.2013829 97.05647049 15.18401581 97.91372223 15.16612244 98.79695129 C14.97611628 107.8757119 14.55394057 116.93658944 14 126 C9.38 126 4.76 126 0 126 C0 84.42 0 42.84 0 0 Z " fill="#131313" transform="translate(709,62)"/>
<path d="M0 0 C4.62 0 9.24 0 14 0 C14.72374668 8.8126801 15.26253794 17.60063008 15.5625 26.4375 C15.6049585 27.66364014 15.64741699 28.88978027 15.69116211 30.15307617 C16.13023457 44.1017988 16.09654298 58.04582636 16 72 C24.78170531 62.55424211 24.78170531 62.55424211 33.34375 52.91015625 C35.2980371 50.65627325 37.27166176 48.42029841 39.25 46.1875 C39.89453125 45.45917969 40.5390625 44.73085937 41.203125 43.98046875 C45.49097473 39.25451264 45.49097473 39.25451264 48 38 C50.12318064 37.9027114 52.24959691 37.87022381 54.375 37.875 C55.51710938 37.87242188 56.65921875 37.86984375 57.8359375 37.8671875 C60.43236152 37.9761732 62.53624883 38.23538757 65 39 C63.53809273 42.19292186 61.73158625 44.80566134 59.5625 47.5625 C58.96566406 48.32691406 58.36882813 49.09132812 57.75390625 49.87890625 C56.23868526 51.711345 54.79190162 53.43770137 53 55 C52.34 55 51.68 55 51 55 C51 55.66 51 56.32 51 57 C50.34 57 49.68 57 49 57 C48.7834375 57.53496094 48.566875 58.06992188 48.34375 58.62109375 C46.51682778 61.85538338 44.04116187 64.38672878 41.5 67.0625 C38.78869481 69.93844517 36.20153517 72.69769724 34 76 C33.34 76 32.68 76 32 76 C34.57510359 82.25382302 38.32871247 86.9554083 42.7277832 92.01074219 C46.37087689 96.20907157 49.67046145 100.55513876 52.87890625 105.09765625 C54.50761732 107.3262609 56.1674732 109.47735763 57.90234375 111.62109375 C58.65547852 112.55514038 58.65547852 112.55514038 59.42382812 113.50805664 C60.41103815 114.72566875 61.40552751 115.93742549 62.40820312 117.14233398 C65.01530393 120.36727305 66.63227223 122.8219866 67 127 C64.0129054 128.4935473 60.9626552 128.30631228 57.6875 128.375 C56.37136719 128.42398438 55.05523438 128.47296875 53.69921875 128.5234375 C49.06899067 127.86826267 47.9092903 126.58104494 45 123 C44.2678125 122.10925781 43.535625 121.21851563 42.78125 120.30078125 C42.0284375 119.31464844 41.275625 118.32851562 40.5 117.3125 C40.08347168 116.77085205 39.66694336 116.2292041 39.23779297 115.67114258 C36.60735441 112.22031022 34.0816932 108.70882772 31.6015625 105.1484375 C31.02470703 104.32690186 30.44785156 103.50536621 29.85351562 102.65893555 C28.71281592 101.02796053 27.5836065 99.38888083 26.46679688 97.74145508 C25.94408203 96.99532959 25.42136719 96.2492041 24.8828125 95.48046875 C24.19276123 94.47342896 24.19276123 94.47342896 23.48876953 93.44604492 C21.86769136 91.53550734 21.86769136 91.53550734 18 92 C13.70023441 98.44964838 14.69815048 107.42136553 14.4375 114.9375 C14.39431641 116.09830078 14.35113281 117.25910156 14.30664062 118.45507812 C14.20115218 121.30326601 14.10013008 124.1516187 14 127 C9.38 127 4.76 127 0 127 C-0.13169843 114.71546944 -0.26217132 102.43092649 -0.39115143 90.14636707 C-0.4511023 84.43993819 -0.5114489 78.73351411 -0.57275391 73.02709961 C-0.6320873 67.50276868 -0.69031068 61.97842699 -0.74781799 56.45407677 C-0.76975838 54.36415897 -0.79207457 52.27424507 -0.81480408 50.18433571 C-0.88781972 43.45628899 -0.94894439 36.72824767 -1 30 C-1.00832855 29.04250729 -1.0166571 28.08501457 -1.02523804 27.09850693 C-1.04802579 24.26839054 -1.06318878 21.43833087 -1.07617188 18.6081543 C-1.08372749 17.77150395 -1.09128311 16.93485361 -1.09906769 16.07285023 C-1.11317747 10.63866979 -0.68478691 5.39197952 0 0 Z " fill="#121212" transform="translate(797,61)"/>
<path d="M0 0 C6.26827683 5.621937 9.63776288 12.70885431 10.24832153 21.11021423 C10.24388031 22.24938797 10.23943909 23.38856171 10.23486328 24.56225586 C10.23471222 25.86307602 10.23456116 27.16389618 10.23440552 28.50413513 C10.22419531 29.90380002 10.21376337 31.3034633 10.203125 32.703125 C10.19938983 34.1504344 10.19654524 35.59774636 10.19454956 37.0450592 C10.18695274 40.83443312 10.16733875 44.6236511 10.1451416 48.41296387 C10.12459753 52.28765759 10.11552962 56.16237676 10.10546875 60.03710938 C10.08408864 67.62507896 10.04893929 75.21288829 10.0078125 82.80078125 C5.7178125 82.80078125 1.4278125 82.80078125 -2.9921875 82.80078125 C-3.9821875 80.16078125 -4.9721875 77.52078125 -5.9921875 74.80078125 C-6.4665625 75.52265625 -6.9409375 76.24453125 -7.4296875 76.98828125 C-12.60631072 82.66994089 -18.97313939 85.4053411 -26.5703125 86.00390625 C-36.47262014 86.17763095 -44.05469852 83.99786393 -51.62109375 77.375 C-56.45312407 72.49639589 -57.3812243 67.49228293 -57.9921875 60.80078125 C-58.06308594 60.09695312 -58.13398437 59.393125 -58.20703125 58.66796875 C-58.54035745 52.08144307 -56.65953847 45.73531896 -53.4296875 40.05078125 C-43.06391075 30.48237194 -32.52205449 29.49004918 -18.9921875 29.67578125 C-17.74050781 29.68480469 -16.48882813 29.69382813 -15.19921875 29.703125 C-12.1300074 29.72655409 -9.06119994 29.75935978 -5.9921875 29.80078125 C-6.28205481 27.87523411 -6.58060268 25.95099238 -6.8828125 24.02734375 C-7.04813477 22.95564941 -7.21345703 21.88395508 -7.38378906 20.77978516 C-8.2093304 16.73754785 -9.15668056 14.79381636 -11.9921875 11.80078125 C-17.80254592 8.60508412 -25.79478846 8.97776183 -32.18359375 10.23046875 C-37.30812927 12.02350278 -38.64026662 15.26493384 -40.9921875 19.80078125 C-44.24952011 20.88655879 -45.31408739 20.70523366 -48.5546875 19.92578125 C-49.33972656 19.74273437 -50.12476563 19.5596875 -50.93359375 19.37109375 C-52.9921875 18.80078125 -52.9921875 18.80078125 -54.9921875 17.80078125 C-54.85496112 10.25333031 -52.056633 6.26476722 -46.9921875 0.80078125 C-34.33335241 -10.93179762 -13.56218547 -9.79491173 0 0 Z M-37.609375 46.265625 C-41.20725854 50.42250175 -42.2904546 53.22035104 -42.2109375 58.70703125 C-41.78056982 62.82626474 -39.69014712 65.72476017 -37.4921875 69.11328125 C-32.87936888 72.22693382 -27.099401 72.40097804 -21.70703125 71.359375 C-15.65364889 69.31825378 -10.87382775 65.77411309 -7.6796875 60.17578125 C-5.47926243 55.35141834 -4.72530494 50.085056 -4.9921875 44.80078125 C-8.80081225 40.9921565 -14.10109255 41.61425156 -19.2421875 41.55078125 C-25.83358541 41.56200474 -32.48891664 41.62752866 -37.609375 46.265625 Z " fill="#101010" transform="translate(926.9921875,105.19921875)"/>
<path d="M0 0 C3.8320008 3.29278868 6.82434342 7.27368684 9.08203125 11.7890625 C9.12225516 14.1220491 9.12523372 16.45612916 9.08203125 18.7890625 C-0.32799153 21.08519006 -0.32799153 21.08519006 -4.91796875 20.7890625 C-5.50578125 19.4278125 -5.50578125 19.4278125 -6.10546875 18.0390625 C-8.10116873 14.46056599 -9.46297263 12.96010736 -12.91796875 10.7890625 C-15.75957544 10.47461059 -18.16385016 10.36038666 -20.98046875 10.4765625 C-21.68751953 10.48623047 -22.39457031 10.49589844 -23.12304688 10.50585938 C-28.13706027 10.52562864 -28.13706027 10.52562864 -32.91796875 11.7890625 C-34.26752191 15.83772199 -34.59978257 19.56028466 -33.91796875 23.7890625 C-29.75015081 28.4332025 -24.28845005 29.77572062 -18.34741211 31.08105469 C-6.75011383 33.6665011 3.1638648 37.59823049 10.08203125 47.7890625 C13.47134393 54.27296502 12.93863602 62.71536303 11.01953125 69.6015625 C6.24288069 77.45992311 -0.48797175 82.21560716 -8.91796875 85.7890625 C-19.25890656 87.98419764 -31.3114758 87.67805908 -40.60546875 82.20703125 C-46.06399149 78.0862057 -51.03035694 73.55300481 -52.91796875 66.7890625 C-53.0686243 64.09735004 -53.00950591 61.48940869 -52.91796875 58.7890625 C-48.40969855 57.02973754 -44.72341106 55.84513633 -39.91796875 56.7890625 C-38.1034972 58.90889633 -36.74342723 61.12286146 -35.32421875 63.5234375 C-33.2697194 66.83346423 -30.85542919 69.16556011 -27.109375 70.37109375 C-24.53206356 70.86266652 -22.10424442 70.95836711 -19.48046875 70.9765625 C-18.09021484 70.99783203 -18.09021484 70.99783203 -16.671875 71.01953125 C-12.90752213 70.7045003 -10.16142104 69.74026214 -7.15625 67.44140625 C-5.60575967 65.37245543 -5.36031901 63.9130236 -5.10546875 61.3515625 C-5.01652344 60.58972656 -4.92757812 59.82789063 -4.8359375 59.04296875 C-4.93331193 56.36749049 -5.50138497 55.05320358 -6.91796875 52.7890625 C-13.42539777 48.63075163 -21.76417324 46.80952374 -29.1015625 44.609375 C-37.73758946 41.87019464 -45.59815762 38.0687005 -49.91796875 29.7890625 C-51.75064568 23.9319261 -52.01941383 16.70182009 -49.66796875 10.9765625 C-48.80171875 9.39875 -48.80171875 9.39875 -47.91796875 7.7890625 C-47.38171875 6.7784375 -46.84546875 5.7678125 -46.29296875 4.7265625 C-41.28103392 -1.47240952 -35.24087473 -4.7796859 -27.390625 -5.96875 C-17.18415061 -6.96843628 -8.53355411 -6.06764093 0 0 Z " fill="#121212" transform="translate(681.91796875,104.2109375)"/>
<path d="M0 0 C1.19109375 -0.00386719 1.19109375 -0.00386719 2.40625 -0.0078125 C4.5 0.125 4.5 0.125 6.5 1.125 C6.5 8.715 6.5 16.305 6.5 24.125 C14.09 24.125 21.68 24.125 29.5 24.125 C29.5 29.075 29.5 34.025 29.5 39.125 C22.24 39.455 14.98 39.785 7.5 40.125 C7.57404732 47.13651496 7.65692555 54.14676577 7.76245117 61.15771484 C7.79566646 63.54176241 7.82370892 65.92588797 7.84643555 68.31005859 C7.88004318 71.74089739 7.93236407 75.17102363 7.98828125 78.6015625 C7.99467117 79.66428375 8.0010611 80.727005 8.00764465 81.82192993 C8.11821243 87.41107337 8.44548683 91.38143706 11.5 96.125 C13.19769531 96.10759766 13.19769531 96.10759766 14.9296875 96.08984375 C16.41145669 96.08046546 17.89322765 96.0713653 19.375 96.0625 C20.12136719 96.05412109 20.86773438 96.04574219 21.63671875 96.03710938 C27.2734375 96.01171875 27.2734375 96.01171875 29.5 97.125 C30.5317435 100.05800669 30.60790988 102.78712836 30.5625 105.875 C30.55347656 106.67421875 30.54445313 107.4734375 30.53515625 108.296875 C30.52355469 108.90015625 30.51195312 109.5034375 30.5 110.125 C23.14887904 114.39995958 15.20463595 114.09767986 6.95703125 112.69140625 C1.65186476 111.03931378 -1.59317587 107.67599653 -4.5 103.125 C-8.70056125 94.77310282 -8.66868738 85.87690914 -8.81640625 76.72265625 C-8.83718735 75.64495468 -8.85796844 74.56725311 -8.87937927 73.45689392 C-8.94446161 70.03382388 -9.00356673 66.61068088 -9.0625 63.1875 C-9.10572455 60.85871659 -9.14934007 58.5299404 -9.19335938 56.20117188 C-9.30010039 50.50918825 -9.40148295 44.81713166 -9.5 39.125 C-13.79 38.795 -18.08 38.465 -22.5 38.125 C-22.5 33.835 -22.5 29.545 -22.5 25.125 C-17.47070312 24.83203125 -17.47070312 24.83203125 -12.44140625 24.5390625 C-11.47074219 24.40242188 -10.50007812 24.26578125 -9.5 24.125 C-7.95474094 21.03448188 -8.1634622 17.71190833 -8 14.3125 C-7.52927441 4.68005963 -7.52927441 4.68005963 -6.5 1.125 C-4.13386544 -0.05806728 -2.63219264 -0.00854608 0 0 Z " fill="#121211" transform="translate(969.5,75.875)"/>
<path d="M0 0 C4.95 0 9.9 0 15 0 C15 29.04 15 58.08 15 88 C10.05 88 5.1 88 0 88 C0 58.96 0 29.92 0 0 Z " fill="#151515" transform="translate(599,100)"/>
<path d="M0 0 C4.95 0 9.9 0 15 0 C15 17.82 15 35.64 15 54 C33.15 54 51.3 54 70 54 C70 54.33 70 54.66 70 55 C51.52 55 33.04 55 14 55 C11.80789977 37.46319818 13.3332326 19.62170991 14 2 C9.71 2 5.42 2 1 2 C1.33 41.6 1.66 81.2 2 122 C5.96 122 9.92 122 14 122 C14 103.85 14 85.7 14 67 C17.7778809 66.24442382 20.42444834 65.89321528 24.1574707 65.97827148 C25.65846062 66.00841591 25.65846062 66.00841591 27.18977356 66.03916931 C28.2576561 66.06620438 29.32553864 66.09323944 30.42578125 66.12109375 C32.07987251 66.15651024 32.07987251 66.15651024 33.76737976 66.19264221 C37.28255685 66.26909329 40.79750329 66.35319772 44.3125 66.4375 C46.6985565 66.49073924 49.08462418 66.54347951 51.47070312 66.59570312 C57.31394418 66.72468333 63.15701449 66.85994431 69 67 C69 67.33 69 67.66 69 68 C51.18 68 33.36 68 15 68 C15 86.48 15 104.96 15 124 C10.05 124 5.1 124 0 124 C0 83.08 0 42.16 0 0 Z " fill="#010101" transform="translate(202,64)"/>
<path d="M0 0 C6.27 0 12.54 0 19 0 C19 0.33 19 0.66 19 1 C13.72 1.66 8.44 2.32 3 3 C3.33 41.94 3.66 80.88 4 121 C3.01 121.495 3.01 121.495 2 122 C1.34 121.67 0.68 121.34 0 121 C0 81.07 0 41.14 0 0 Z " fill="#1C1C1E" transform="translate(470,64)"/>
<path d="M0 0 C2.92354342 1.82891437 5.43371681 3.86743363 7 7 C7.61493604 11.96341236 7.73594779 15.77342035 5.125 20.125 C0.68514276 22.78891434 -2.95239203 22.96604937 -8 22 C-11.1780487 20.74633188 -11.79752039 19.89799949 -14 17 C-14.90705949 12.35036732 -14.55117565 8.39244375 -12.8125 4 C-9.27651702 0.09822568 -5.12231951 -0.73175993 0 0 Z " fill="#121212" transform="translate(447,167)"/>
<path d="M0 0 C2.87472735 1.24988145 4.44101438 2.25468584 6.3125 4.75 C7.63189267 9.06801237 7.58520303 12.68329318 5.75 16.8125 C3.81803152 19.2274606 2.95224902 20.12230435 0 21 C-4.50229346 21.42878985 -6.87023013 21.58944515 -10.875 19.5 C-13.66727558 16.21496991 -14.81703139 13.31639586 -15 9 C-13.87873972 5.69851139 -12.62717249 3.69685832 -10.3125 1.125 C-6.90482306 -0.53278878 -3.67536916 -0.54071037 0 0 Z " fill="#131313" transform="translate(610,66)"/>
<path d="M0 0 C2 2 2 2 2.24888897 4.09618282 C2.24807182 5.40389314 2.24807182 5.40389314 2.24723816 6.73802185 C2.25143265 7.73772003 2.25562714 8.73741821 2.25994873 9.76741028 C2.25151947 11.41866158 2.25151947 11.41866158 2.24291992 13.10327148 C2.24481827 14.25941956 2.24671661 15.41556763 2.24867249 16.60675049 C2.25239013 20.44493295 2.2416613 24.28292797 2.23046875 28.12109375 C2.22927732 30.77906068 2.22877285 33.43701964 2.2290802 36.09498596 C2.22814301 41.67280425 2.21945259 47.25056822 2.20581055 52.82836914 C2.19009214 59.27899591 2.18481216 65.72956313 2.1855461 72.18020767 C2.1861564 78.38134236 2.18105027 84.58245764 2.17275429 90.7835865 C2.16956513 93.42426498 2.16759964 96.06494523 2.16686058 98.70562553 C2.16469919 102.39289229 2.15595893 106.0800834 2.14526367 109.76733398 C2.14594345 111.41554893 2.14594345 111.41554893 2.14663696 113.09706116 C2.14023949 114.60083817 2.14023949 114.60083817 2.13371277 116.13499451 C2.13203692 117.00717841 2.13036108 117.87936232 2.12863445 118.77797604 C2 121 2 121 1 124 C-3.95 124 -8.9 124 -14 124 C-15.41800643 67.40192926 -15.41800643 67.40192926 -14 42 C-13.67 42 -13.34 42 -13 42 C-12.67 68.4 -12.34 94.8 -12 122 C-8.04 122 -4.08 122 0 122 C0 81.74 0 41.48 0 0 Z " fill="#000000" transform="translate(576,64)"/>
<path d="M0 0 C0.66 0.33 1.32 0.66 2 1 C3.15246708 25.64999037 -7.00615467 50.50766209 -23.64160156 68.80566406 C-25.46658548 70.74921759 -27.31769694 72.66205639 -29.1875 74.5625 C-29.78183838 75.17085693 -30.37617676 75.77921387 -30.98852539 76.40600586 C-34.15800687 79.54083849 -36.67141722 81.63269429 -41 83 C-42.28552641 83.68130413 -43.55846615 84.38733303 -44.8125 85.125 C-45.864375 85.74375 -46.91625 86.3625 -48 87 C-45.69666394 81.34635694 -40.57690495 76.56489592 -35 74.125 C-32.30415515 72.60858727 -30.89962202 70.40618789 -29 68 C-28.34 68 -27.68 68 -27 68 C-27 67.01 -27 66.02 -27 65 C-25.84432017 63.84432017 -24.68263775 62.69404907 -23.4921875 61.57421875 C-19.89938843 57.78390978 -17.26364518 53.09681783 -14.578125 48.640625 C-14.13984375 47.91359375 -13.7015625 47.1865625 -13.25 46.4375 C-12.86328125 45.77621094 -12.4765625 45.11492188 -12.078125 44.43359375 C-11.72234375 43.96050781 -11.3665625 43.48742188 -11 43 C-10.34 43 -9.68 43 -9 43 C-9.33 39.7 -9.66 36.4 -10 33 C-8.35 33 -6.7 33 -5 33 C-4.95174072 32.34153076 -4.90348145 31.68306152 -4.85375977 31.00463867 C-4.28683934 24.01015785 -3.25055676 17.20256815 -1.9375 10.3125 C-1.75123047 9.31283203 -1.56496094 8.31316406 -1.37304688 7.28320312 C-0.91986013 4.85458699 -0.46213408 2.42692649 0 0 Z " fill="#B49BDE" transform="translate(176,3)"/>
<path d="M0 0 C0.33 0 0.66 0 1 0 C1.75736292 3.37265804 2.12543006 6.48609469 2.12698364 9.94020081 C2.12980347 10.9089212 2.13262329 11.8776416 2.13552856 12.87571716 C2.13350433 13.92679153 2.1314801 14.97786591 2.12939453 16.06079102 C2.13114685 17.17675659 2.13289917 18.29272217 2.13470459 19.44250488 C2.13910428 23.12965451 2.1361919 26.81675614 2.1328125 30.50390625 C2.13348603 33.06550608 2.13445647 35.62710584 2.13571167 38.18870544 C2.13718605 43.55606758 2.13513765 48.92341252 2.13037109 54.29077148 C2.1249265 60.49320598 2.12669423 66.69560761 2.1321975 72.89804131 C2.13728393 78.8701146 2.13674355 84.8421777 2.13381577 90.81425285 C2.1331479 93.35362693 2.13397003 95.89300185 2.13629532 98.43237495 C2.13882953 101.97780722 2.13497041 105.52317599 2.12939453 109.06860352 C2.13141876 110.12170212 2.13344299 111.17480072 2.13552856 112.2598114 C2.13270874 113.22571198 2.12988892 114.19161255 2.12698364 115.18678284 C2.12660662 116.02465112 2.12622959 116.8625194 2.12584114 117.72577763 C2 120 2 120 1 124 C-3.62 124 -8.24 124 -13 124 C-13 96.28 -13 68.56 -13 40 C-12.67 40 -12.34 40 -12 40 C-11.8540785 47.49912193 -11.71217329 54.998313 -11.57275391 62.49755859 C-11.52512442 65.03598658 -11.47665442 67.57439898 -11.42724609 70.11279297 C-11.09129284 87.41095748 -10.93454012 104.69858914 -11 122 C-6.05 121.505 -6.05 121.505 -1 121 C-1.00580078 119.38399902 -1.01160156 117.76799805 -1.01757812 116.10302734 C-1.07220343 92.98496808 -0.80710818 69.87206499 -0.53643799 46.75592041 C-0.47486051 41.46489868 -0.4152605 36.17385466 -0.35546875 30.8828125 C-0.2388587 20.5885196 -0.1201442 10.29425222 0 0 Z " fill="#000000" transform="translate(414,64)"/>
<path d="M0 0 C0.66 0 1.32 0 2 0 C2 29.04 2 58.08 2 88 C-2.95 88 -7.9 88 -13 88 C-12.505 47.41 -12.505 47.41 -12 6 C-11.67 6 -11.34 6 -11 6 C-11 32.4 -11 58.8 -11 86 C-7.37 86 -3.74 86 0 86 C-0.01474869 84.93733414 -0.02949738 83.87466827 -0.04469299 82.77980042 C-0.18271339 72.78791311 -0.31545422 62.79596791 -0.4429636 52.80394077 C-0.50869609 47.66637264 -0.57631905 42.5288436 -0.64819336 37.39135742 C-0.71742694 32.43773762 -0.78178495 27.48407672 -0.84269524 22.53034782 C-0.86685782 20.63600279 -0.89280737 18.74167972 -0.92053413 16.8473835 C-0.95893068 14.20371057 -0.99109637 11.56003241 -1.02172852 8.91625977 C-1.03467453 8.12504227 -1.04762054 7.33382477 -1.06095886 6.51863098 C-1.07903033 4.67906386 -1.04521436 2.83910017 -1 1 C-0.67 0.67 -0.34 0.34 0 0 Z " fill="#0A0A0A" transform="translate(612,100)"/>
<path d="M0 0 C11.08425768 -0.09317831 22.16842031 -0.16400574 33.25299168 -0.20724869 C38.40146909 -0.22801585 43.54967616 -0.25613197 48.69799805 -0.30175781 C53.67769418 -0.34560697 58.65713228 -0.36921857 63.63700676 -0.37950897 C65.52538037 -0.38683089 67.41374182 -0.40112619 69.30200386 -0.42292023 C80.89980855 -0.5513087 90.94780617 0.28267679 102 4 C102 4.99 102 5.98 102 7 C100.68 7.33 99.36 7.66 98 8 C98 7.34 98 6.68 98 6 C96.845 6.04125 95.69 6.0825 94.5 6.125 C90.84237091 6.13140566 87.68906818 5.47233166 84.15156555 4.50682068 C74.59744679 2.2562618 64.37423978 2.79364454 54.61328125 2.68359375 C53.0595806 2.66297368 51.50588493 2.64197608 49.95219421 2.62062073 C45.89995395 2.56592092 41.84766755 2.51628619 37.79534912 2.46777344 C33.64542629 2.41717333 29.4955689 2.36169011 25.34570312 2.30664062 C17.23052439 2.19969812 9.11529023 2.09811646 1 2 C0.67 1.34 0.34 0.68 0 0 Z " fill="#846ABB" transform="translate(1,143)"/>
<path d="M0 0 C3.96 0.33 7.92 0.66 12 1 C12 1.33 12 1.66 12 2 C7.545 2.495 7.545 2.495 3 3 C2.67 41.61 2.34 80.22 2 120 C1.01 120.495 1.01 120.495 0 121 C0 81.07 0 41.14 0 0 Z " fill="#080808" transform="translate(309,64)"/>
<path d="M0 0 C2.76807691 1.38403845 2.91705621 2.89035155 4 5.75 C4.33 6.61109375 4.66 7.4721875 5 8.359375 C5.33 9.23078125 5.66 10.1021875 6 11 C6.34417969 11.84046875 6.68835938 12.6809375 7.04296875 13.546875 C7.9409402 15.84861406 8.64872887 18.12182614 9.3125 20.5 C10.80734909 25.57501267 12.68155247 30.45092317 14.609375 35.375 C26 65.06741573 26 65.06741573 26 70 C26.66 70.33 27.32 70.66 28 71 C28.3449145 72.33038449 28.67516582 73.66457061 29 75 C29.77405019 78.29861553 29.77405019 78.29861553 32 81 C35.33047565 81.83261891 38.57575625 81.98715106 42 82 C42.66 79.03 43.32 76.06 44 73 C44.99 73.33 45.98 73.66 47 74 C45.35 77.3 43.7 80.6 42 84 C38.04 84 34.08 84 30 84 C25.3290338 72.65799963 20.97658063 61.26406174 17.00634766 49.65771484 C14.74689209 43.07822443 12.36755164 36.55719359 9.875 30.0625 C9.3809668 28.77400146 9.3809668 28.77400146 8.87695312 27.45947266 C7.61277205 24.17096172 6.3437485 20.88438751 5.06738281 17.60058594 C4.20606357 15.38164134 3.35251026 13.15984041 2.5 10.9375 C2.24460449 10.2885376 1.98920898 9.6395752 1.72607422 8.97094727 C0.47670191 5.70089304 0 3.57420091 0 0 Z " fill="#050505" transform="translate(326,100)"/>
<path d="M0 0 C0.495 0.99 0.495 0.99 1 2 C0.09378906 1.9278125 -0.81242188 1.855625 -1.74609375 1.78125 C-14.22152059 0.15269801 -14.22152059 0.15269801 -26 3 C-26.969375 3.28875 -27.93875 3.5775 -28.9375 3.875 C-33.9661811 5.72227061 -36.82045812 8.16198044 -39.3125 12.875 C-41.82677181 19.06318736 -41.77463525 25.43980776 -41 32 C-38.34142107 38.20335085 -32.44806504 42.54903239 -26.28710938 45.14160156 C-23.37524245 46.12768802 -20.45357645 47.02226139 -17.5 47.875 C-16.48679687 48.18179688 -15.47359375 48.48859375 -14.4296875 48.8046875 C-11.95709608 49.55113019 -9.48109288 50.28242902 -7 51 C-7 51.33 -7 51.66 -7 52 C-18.43413379 51.29995099 -32.58819512 47.23797581 -40.39453125 38.42578125 C-44.61537661 32.50466603 -44.55830289 26.01866484 -44 19 C-43.30538837 16.30327251 -42.37021187 14.49574305 -41 12 C-40.46375 10.989375 -39.9275 9.97875 -39.375 8.9375 C-34.36306517 2.73852798 -28.32290598 -0.5687484 -20.47265625 -1.7578125 C-13.53410558 -2.43741778 -6.64691683 -2.4035726 0 0 Z " fill="#070707" transform="translate(675,100)"/>
<path d="M0 0 C0 40.92 0 81.84 0 124 C-4.62 124 -9.24 124 -14 124 C-14 123.34 -14 122.68 -14 122 C-10.04 122 -6.08 122 -2 122 C-1.505 62.6 -1.505 62.6 -1 2 C-4.96 2 -8.92 2 -13 2 C-13.33 2.99 -13.66 3.98 -14 5 C-14 3.68 -14 2.36 -14 1 C-11.85420251 0.83287252 -9.70836101 0.66631 -7.5625 0.5 C-5.77005859 0.36078125 -5.77005859 0.36078125 -3.94140625 0.21875 C-1 0 -1 0 0 0 Z " fill="#010101" transform="translate(286,64)"/>
<path d="M0 0 C2 2 2 2 2.24609566 4.1357975 C2.24333028 5.47147553 2.24333028 5.47147553 2.24050903 6.83413696 C2.24325836 7.85499893 2.24600769 8.8758609 2.24884033 9.92765808 C2.24164978 11.05190689 2.23445923 12.1761557 2.22705078 13.33447266 C2.22734283 14.51494675 2.22763489 15.69542084 2.22793579 16.91166687 C2.22677917 20.15324919 2.21673177 23.39466002 2.20278788 26.63620806 C2.19030614 30.02214345 2.18911204 33.40808202 2.18673706 36.79403687 C2.18051475 43.20783459 2.16409382 49.62156433 2.14403808 56.03533208 C2.1217024 63.33631825 2.11069153 70.63730763 2.10064721 77.93831944 C2.07972821 92.95891754 2.0445377 107.97945198 2 123 C3.62490954 123.02698189 5.24994633 123.04638757 6.875 123.0625 C7.77992188 123.07410156 8.68484375 123.08570313 9.6171875 123.09765625 C12.0168585 123.16249257 12.0168585 123.16249257 14 122 C14 123.32 14 124.64 14 126 C9.38 126 4.76 126 0 126 C0 84.42 0 42.84 0 0 Z " fill="#000000" transform="translate(709,62)"/>
<path d="M0 0 C1.56718238 2.35077357 2.54726765 4.13232611 3.55078125 6.703125 C3.83477783 7.42935059 4.11877441 8.15557617 4.41137695 8.90380859 C4.70874756 9.67805176 5.00611816 10.45229492 5.3125 11.25 C5.62082764 12.04615723 5.92915527 12.84231445 6.24682617 13.66259766 C8.68835806 20.03351943 10.88280975 26.46218208 12.95703125 32.9609375 C14.00245903 36.22602188 14.00245903 36.22602188 16 40 C19.3 40 22.6 40 26 40 C26.495 38.7625 26.99 37.525 27.5 36.25 C27.7784375 35.55390625 28.056875 34.8578125 28.34375 34.140625 C29.19540327 31.73577305 29.19540327 31.73577305 29 28 C29.66 28 30.32 28 31 28 C31.99 25.03 32.98 22.06 34 19 C34.98262843 22.93051371 35.11588866 23.52387021 33.8203125 27.00390625 C33.55089844 27.74447266 33.28148437 28.48503906 33.00390625 29.24804688 C32.71386719 30.01181641 32.42382812 30.77558594 32.125 31.5625 C31.84269531 32.33013672 31.56039062 33.09777344 31.26953125 33.88867188 C30.74473345 35.31507726 30.21543301 36.73983998 29.68017578 38.16235352 C29.08762943 39.76324957 28.53981287 41.38056139 28 43 C23.71 43 19.42 43 15 43 C11.20032105 36.07117368 8.58277144 29.11961704 6.17480469 21.62670898 C4.57174864 16.64877061 2.80480179 11.82047229 0.6640625 7.04296875 C-0.12529257 4.61454108 -0.11513229 2.53733844 0 0 Z " fill="#070707" transform="translate(503,141)"/>
<path d="M0 0 C0.33 0 0.66 0 1 0 C1 27.72 1 55.44 1 84 C-4.28 84 -9.56 84 -15 84 C-15 83.01 -15 82.02 -15 81 C-8.07 81.495 -8.07 81.495 -1 82 C-0.505 41.41 -0.505 41.41 0 0 Z " fill="#0B0B0B" transform="translate(485,104)"/>
<path d="M0 0 C5 2 5 2 7.19921875 2.9609375 C9.95839795 3.98456605 12.69924639 4.66112278 15.57055664 5.29199219 C27.16785492 7.8774386 37.08183355 11.80916799 44 22 C46.91248343 27.57170744 46.17876061 33.86255248 46 40 C45.01 39.505 45.01 39.505 44 39 C43.62564792 36.59047988 43.34102567 34.23704344 43.125 31.8125 C42.5965194 26.08354537 41.69437308 22.4918669 38 18 C37.01 17.67 36.02 17.34 35 17 C33.98284213 16.01745745 32.98330466 15.01642114 32 14 C26.0656302 10.32069072 20.03515881 8.90482008 13.25537109 7.57055664 C8.1679432 6.50849351 4.40175466 4.77640241 0 2 C0 1.34 0 0.68 0 0 Z " fill="#060606" transform="translate(648,130)"/>
<path d="M0 0 C2.92354342 1.82891437 5.43371681 3.86743363 7 7 C7.61493604 11.96341236 7.73594779 15.77342035 5.125 20.125 C0.68514276 22.78891434 -2.95239203 22.96604937 -8 22 C-11.1780487 20.74633188 -11.79752039 19.89799949 -14 17 C-14.90705949 12.35036732 -14.55117565 8.39244375 -12.8125 4 C-9.27651702 0.09822568 -5.12231951 -0.73175993 0 0 Z M-10.4375 4.25 C-12.82483595 8.45171127 -13.2694695 9.79775147 -12.1875 14.625 C-11.2651878 18.02303184 -11.2651878 18.02303184 -9 20 C-4.80112718 20.89484175 -2.17032534 21.34860755 1.9375 20.125 C4.68920187 17.28991323 4.85419862 15.08872417 5.07421875 11.22265625 C4.97963125 8.39000965 4.47159598 6.42813336 3 4 C-1.71073588 0.85950941 -6.27216553 0.40507588 -10.4375 4.25 Z " fill="#060606" transform="translate(447,167)"/>
<path d="M0 0 C0 7.13987488 -7.82527643 13.05045741 -12.5625 17.875 C-13.11639404 18.44653809 -13.67028809 19.01807617 -14.2409668 19.60693359 C-17.32695602 22.68786306 -19.77256487 24.64269641 -24 26 C-25.28552641 26.68130413 -26.55846615 27.38733303 -27.8125 28.125 C-28.864375 28.74375 -29.91625 29.3625 -31 30 C-28.69666394 24.34635694 -23.57690495 19.56489592 -18 17.125 C-15.30415515 15.60858727 -13.89962202 13.40618789 -12 11 C-11.34 11 -10.68 11 -10 11 C-9.67 10.01 -9.34 9.02 -9 8 C-8.67 8.66 -8.34 9.32 -8 10 C-7.4225 9.278125 -6.845 8.55625 -6.25 7.8125 C-4.16666667 5.20833333 -2.08333333 2.60416667 0 0 Z " fill="#AE94E1" transform="translate(159,60)"/>
<path d="M0 0 C4.30344859 2.98850597 7.14296193 6.10878498 9 11 C9.25 14.9375 9.25 14.9375 9 18 C-0.41002278 20.29612756 -0.41002278 20.29612756 -5 20 C-5.391875 19.0925 -5.78375 18.185 -6.1875 17.25 C-8.1694022 13.69624432 -9.62292809 12.22664082 -13 10 C-16.56128387 9.09630996 -16.56128387 9.09630996 -20.3125 8.75 C-22.19388672 8.52570313 -22.19388672 8.52570313 -24.11328125 8.296875 C-25.06589844 8.19890625 -26.01851562 8.1009375 -27 8 C-27 7.67 -27 7.34 -27 7 C-14.38750712 6.37801405 -14.38750712 6.37801405 -9.375 8.625 C-6.72656943 11.27343057 -4.90196104 13.7812967 -3 17 C-0.03 16.67 2.94 16.34 6 16 C5.71110084 11.21344195 5.71110084 11.21344195 3.4375 7.1875 C2.963125 6.795625 2.48875 6.40375 2 6 C2 5.34 2 4.68 2 4 C1.34 4 0.68 4 0 4 C-0.33 3.01 -0.66 2.02 -1 1 C-0.67 0.67 -0.34 0.34 0 0 Z " fill="#070707" transform="translate(682,105)"/>
<path d="M0 0 C0.33 0 0.66 0 1 0 C1.33 23.1 1.66 46.2 2 70 C5.3 70.33 8.6 70.66 12 71 C12.495 70.01 12.495 70.01 13 69 C13.33 70.32 13.66 71.64 14 73 C9.38 73 4.76 73 0 73 C0 48.91 0 24.82 0 0 Z " fill="#020202" transform="translate(797,115)"/>
<path d="M0 0 C1.81539383 2.12091133 3.1776922 4.33879611 4.6015625 6.73828125 C7.65448017 11.67582128 11.55346628 13.4800371 17 15 C17 15.33 17 15.66 17 16 C11.75793228 15.72885857 8.39365286 15.34186157 4.38671875 11.609375 C1.84949987 8.66477168 -0.10344742 5.38190571 -2 2 C-4.64 2.66 -7.28 3.32 -10 4 C-9.88490339 5.41750563 -9.75746342 6.83401169 -9.625 8.25 C-9.55539062 9.03890625 -9.48578125 9.8278125 -9.4140625 10.640625 C-8.98492887 13.085877 -8.21399362 14.84836903 -7 17 C-7.66 17.33 -8.32 17.66 -9 18 C-12.32575612 12.4174808 -13.46450943 8.50313209 -13 2 C-8.4917298 0.24067504 -4.80544231 -0.94392617 0 0 Z " fill="#060606" transform="translate(642,161)"/>
<path d="M0 0 C3.465 1.98 3.465 1.98 7 4 C7 4.66 7 5.32 7 6 C7.53625 6.2475 8.0725 6.495 8.625 6.75 C13.12463873 9.11823091 17.44826637 11.46358467 20 16 C20 17.32 20 18.64 20 20 C17.69 19.67 15.38 19.34 13 19 C12.79375 17.906875 12.5875 16.81375 12.375 15.6875 C11.37847146 11.79326283 11.37847146 11.79326283 8.0625 10.375 C7.051875 9.92125 6.04125 9.4675 5 9 C3.25 6.5625 3.25 6.5625 2 4 C1.608125 3.236875 1.21625 2.47375 0.8125 1.6875 C0.544375 1.130625 0.27625 0.57375 0 0 Z " fill="#AF9ADE" transform="translate(136,167)"/>
<path d="M0 0 C0.33 0 0.66 0 1 0 C1.02540728 6.4412349 1.04289098 12.88245681 1.05493164 19.32373047 C1.0599526 21.51383955 1.06677066 23.70394529 1.07543945 25.89404297 C1.08760304 29.04655788 1.09325077 32.19902836 1.09765625 35.3515625 C1.10281754 36.32678864 1.10797882 37.30201477 1.11329651 38.30679321 C1.11337204 39.22729462 1.11344757 40.14779602 1.11352539 41.09619141 C1.115746 41.9000528 1.11796661 42.70391418 1.12025452 43.53213501 C0.98167939 46.37597592 0.46807929 49.19152426 0 52 C-4.62 52 -9.24 52 -14 52 C-13.67 50.68 -13.34 49.36 -13 48 C-12.67 48.66 -12.34 49.32 -12 50 C-7.05 49.505 -7.05 49.505 -2 49 C-2.020625 47.88625 -2.04125 46.7725 -2.0625 45.625 C-2 42 -2 42 -1 40 C-0.84266751 37.01236645 -0.74138585 34.04458849 -0.68359375 31.0546875 C-0.66281265 30.1696756 -0.64203156 29.2846637 -0.62062073 28.37283325 C-0.55513402 25.54030259 -0.49624438 22.70767775 -0.4375 19.875 C-0.39431394 17.95702143 -0.35069963 16.03905246 -0.30664062 14.12109375 C-0.19945353 9.41415949 -0.0981836 4.70713033 0 0 Z " fill="#0B0B0B" transform="translate(323,136)"/>
<path d="M0 0 C2.78750144 1.39375072 2.89266287 3.16244861 4 6 C10.15232104 12.15232104 14.40587915 13.01862069 22.9375 13.125 C27.39840225 13.09166823 31.61463888 12.79733839 36 12 C33.10821914 15.16718857 31.05977507 15.93462835 26.70703125 16.203125 C10.89052116 16.39349423 10.89052116 16.39349423 5.2265625 11.453125 C1.85697411 7.87788098 0.24605434 5.04411398 0 0 Z " fill="#040404" transform="translate(964,173)"/>
<path d="M0 0 C4.67365398 4.23549892 8.12955448 9.17503492 11.77441406 14.29931641 C13.15008616 16.20826697 14.55311776 18.09510862 15.9609375 19.98046875 C16.46415527 20.65674316 16.96737305 21.33301758 17.48583984 22.02978516 C18.48547415 23.3717644 19.48834481 24.71133971 20.49462891 26.04833984 C24 30.77631295 24 30.77631295 24 33 C25.98 33.33 27.96 33.66 30 34 C28.68 34.66 27.36 35.32 26 36 C20.87925643 31.06020143 16.68006455 25.56404611 12.421875 19.89257812 C11.44079173 18.58671316 10.45619576 17.28348242 9.46875 15.98242188 C7.92948091 13.95251076 6.40088605 11.91498386 4.875 9.875 C4.38950684 9.23578613 3.90401367 8.59657227 3.40380859 7.93798828 C0 3.3441402 0 3.3441402 0 0 Z " fill="#040404" transform="translate(821,153)"/>
<path d="M0 0 C0.33 0 0.66 0 1 0 C1.33 19.8 1.66 39.6 2 60 C3.65 60 5.3 60 7 60 C5 62 5 62 2.375 62.125 C1.59125 62.08375 0.8075 62.0425 0 62 C-0.15410449 54.65459805 -0.30228299 47.30910153 -0.4429636 39.96342945 C-0.50847677 36.55229474 -0.57600612 33.14122513 -0.64819336 29.73022461 C-0.73115394 25.80593673 -0.80525492 21.88150533 -0.87890625 17.95703125 C-0.90594131 16.73603226 -0.93297638 15.51503326 -0.96083069 14.2570343 C-0.98092697 13.1162291 -1.00102325 11.97542389 -1.02172852 10.80004883 C-1.04171402 9.79855301 -1.06169952 8.79705719 -1.08229065 7.76521301 C-1.00181804 5.06109158 -0.61352193 2.62994562 0 0 Z " fill="#000000" transform="translate(761,126)"/>
<path d="M0 0 C-2 2 -2 2 -4.5 3.4375 C-7.23702985 4.90965916 -7.23702985 4.90965916 -9 8 C-8.82110557 11.33936274 -8.61437281 13.97604532 -6.875 16.875 C-4.00580674 18.59651596 -1.30014216 18.76427556 2 19 C2.99 18.67 3.98 18.34 5 18 C5.33 17.01 5.66 16.02 6 15 C6.99 15 7.98 15 9 15 C8.08486681 17.28783297 7.34515354 18.73449728 5.375 20.25 C1.88053061 21.35351665 -1.40408151 21.55761758 -5 21 C-8.74880845 19.04409994 -10.2481395 17.06157339 -11.5 13.125 C-12.12772602 9.9449163 -11.96842612 8.90703245 -10.875 5.6875 C-7.71963683 1.16481279 -5.60176337 -0.46681361 0 0 Z " fill="#070707" transform="translate(607,66)"/>
<path d="M0 0 C1 2 1 2 0.375 5.3125 C-1.17733162 9.47557117 -2.77774049 10.99255779 -6 14 C-7.86322076 16.33705708 -9.66103536 18.71455734 -11.44921875 21.109375 C-13 23 -13 23 -15 24 C-14.57956302 20.35621284 -12.75709905 18.45600728 -10.39453125 15.7734375 C-8.28760156 13.09403671 -6.80420851 10.12449822 -5.203125 7.125 C-3.7260517 4.51614327 -1.96642687 2.25774937 0 0 Z " fill="#B29DDB" transform="translate(165,47)"/>
<path d="M0 0 C1.32 0.33 2.64 0.66 4 1 C1.94800743 4.07798885 0.83646994 4.89968202 -2.3125 6.625 C-3.07175781 7.05039063 -3.83101562 7.47578125 -4.61328125 7.9140625 C-8.99235117 9.90650348 -13.04694155 10.11991637 -17.8125 10.0625 C-19.27623047 10.04896484 -19.27623047 10.04896484 -20.76953125 10.03515625 C-21.87361328 10.01775391 -21.87361328 10.01775391 -23 10 C-22.34 9.67 -21.68 9.34 -21 9 C-21 8.34 -21 7.68 -21 7 C-20.2265625 7.05800781 -19.453125 7.11601562 -18.65625 7.17578125 C-11.45015317 7.48792653 -6.47989607 6.95442658 -1 2 C-0.67 1.34 -0.34 0.68 0 0 Z " fill="#030303" transform="translate(915,181)"/>
<path d="M0 0 C8.41810718 0.1592946 17.01851176 1.97621052 24.75 5.3125 C22.77 6.3025 22.77 6.3025 20.75 7.3125 C20.75 6.6525 20.75 5.9925 20.75 5.3125 C19.595 5.35375 18.44 5.395 17.25 5.4375 C13.6173237 5.44386195 10.48953503 4.81180028 6.98046875 3.82421875 C2.6411795 2.82869004 -1.8173819 2.62213141 -6.25 2.3125 C-3.85032657 -0.08717343 -3.28453794 0.01631393 0 0 Z " fill="#9678D1" transform="translate(78.25,143.6875)"/>
<path d="M0 0 C5.99932374 1.8331267 11.44920563 4.07321751 17 7 C17 7.99 17 8.98 17 10 C17.66 10.33 18.32 10.66 19 11 C17.68 11 16.36 11 15 11 C15 10.34 15 9.68 15 9 C13.68 9.33 12.36 9.66 11 10 C10.67 9.01 10.34 8.02 10 7 C8.329375 6.566875 8.329375 6.566875 6.625 6.125 C3 5 3 5 1.0625 2.375 C0.711875 1.59125 0.36125 0.8075 0 0 Z " fill="#937CC4" transform="translate(107,149)"/>
<path d="M0 0 C5.47239144 -0.86406181 9.03398077 1.16366958 13.515625 4.015625 C17.59065087 7.27051988 20.82595459 11.24378512 23 16 C22.67578125 18.3046875 22.67578125 18.3046875 22 20 C20.06283475 17.57854344 18.59831809 15.25019377 17.125 12.5 C13.2129682 5.65394435 7.10514772 3.59372383 0 1 C0 0.67 0 0.34 0 0 Z " fill="#060606" transform="translate(912,100)"/>
<path d="M0 0 C0.66 1.32 1.32 2.64 2 4 C-3.49963129 10.87114428 -9.33604192 17.32577042 -18 20 C-20.32421875 19.140625 -20.32421875 19.140625 -22 18 C-21.3709375 17.79246094 -20.741875 17.58492187 -20.09375 17.37109375 C-11.8716093 14.41161841 -4.93612701 10.1037909 -1 2 C-0.67 1.34 -0.34 0.68 0 0 Z " fill="#030303" transform="translate(691,170)"/>
<path d="M0 0 C-16.71875 9.65625 -16.71875 9.65625 -27 9 C-24.44931155 6.64551835 -23.28982642 6.01672076 -19.75 5.8125 C-18.38875 5.9053125 -18.38875 5.9053125 -17 6 C-17 5.34 -17 4.68 -17 4 C-11.555 3.01 -11.555 3.01 -6 2 C-6 1.34 -6 0.68 -6 0 C-3.50907189 -1.24546405 -2.58919267 -0.7767578 0 0 Z " fill="#977BD1" transform="translate(121,94)"/>
<path d="M0 0 C1.61467351 2.0760088 3.00814885 4.01629769 4.1875 6.375 C8.3126673 12.34938023 14.00413695 15.54252853 21 17 C20.34 17.66 19.68 18.32 19 19 C13.28786 18.83199588 8.21166445 15.08773497 4.1875 11.2890625 C1.28514157 8.0936775 -0.86765236 5.4998197 -1 1 C-0.67 0.67 -0.34 0.34 0 0 Z " fill="#040404" transform="translate(871,171)"/>
<path d="M0 0 C-1.02167409 3.06502227 -2.12443882 4.25520766 -4.39990234 6.43896484 C-7.82309005 9.77858373 -11.04131297 13.32498782 -14.3125 16.8125 C-15.05306641 17.60076172 -15.79363281 18.38902344 -16.55664062 19.20117188 C-18.3718076 21.1334464 -20.18623932 23.06640554 -22 25 C-22 20.83048082 -20.27042164 19.80585535 -17.4375 16.8125 C-16.51758095 15.83003364 -15.59831406 14.84695623 -14.6796875 13.86328125 C-13.35324219 12.44595703 -13.35324219 12.44595703 -12 11 C-10.14180139 8.89838423 -8.30457186 6.78073199 -6.47265625 4.65625 C-2.33254717 0 -2.33254717 0 0 0 Z " fill="#070707" transform="translate(837,109)"/>
<path d="M0 0 C1.24422942 3.73268825 0.54017099 4.84101373 -0.875 8.4375 C-2.1134433 11.62021268 -3.18353249 14.68912783 -4 18 C-4.66884217 19.92325701 -5.35750765 21.83969815 -6.0625 23.75 C-6.42472656 24.73484375 -6.78695313 25.7196875 -7.16015625 26.734375 C-7.43730469 27.48203125 -7.71445312 28.2296875 -8 29 C-8.66 29 -9.32 29 -10 29 C-8.67693291 22.40461028 -6.81571141 16.28632376 -4.4375 10 C-4.12103516 9.14277344 -3.80457031 8.28554687 -3.47851562 7.40234375 C-1.14207688 1.14207688 -1.14207688 1.14207688 0 0 Z " fill="#060606" transform="translate(391,82)"/>
<path d="M0 0 C-0.33 0.66 -0.66 1.32 -1 2 C-1.66 2 -2.32 2 -3 2 C-3 2.66 -3 3.32 -3 4 C-3.66 4 -4.32 4 -5 4 C-5.24492188 4.56203125 -5.48984375 5.1240625 -5.7421875 5.703125 C-7.22926539 8.41865854 -9.04062782 10.46391438 -11.125 12.75 C-12.21167969 13.94882813 -12.21167969 13.94882813 -13.3203125 15.171875 C-13.87460937 15.77515625 -14.42890625 16.3784375 -15 17 C-15.66 16.34 -16.32 15.68 -17 15 C-16.50628906 14.48050781 -16.01257813 13.96101563 -15.50390625 13.42578125 C-14.86324219 12.72839844 -14.22257813 12.03101562 -13.5625 11.3125 C-12.92441406 10.62800781 -12.28632812 9.94351563 -11.62890625 9.23828125 C-9.82191694 7.08922664 -9.82191694 7.08922664 -9.4921875 4.34765625 C-9.32976563 3.57292969 -9.16734375 2.79820313 -9 2 C-2.7826087 -1.39130435 -2.7826087 -1.39130435 0 0 Z " fill="#0A0A0A" transform="translate(851,114)"/>
<path d="M0 0 C1.30710937 0.41572266 1.30710937 0.41572266 2.640625 0.83984375 C10.52506253 3.23760019 17.73781426 4.69735583 26 5 C25.67 5.66 25.34 6.32 25 7 C17.29352176 7.46969506 6.25846199 7.63872739 0.12109375 2.39453125 C-0.24886719 1.93433594 -0.61882813 1.47414062 -1 1 C-0.67 0.67 -0.34 0.34 0 0 Z " fill="#020202" transform="translate(642,184)"/>
<path d="M0 0 C1.65 0 3.3 0 5 0 C6.12598637 2.56207058 7.25081988 5.12463699 8.375 7.6875 C8.69210937 8.40873047 9.00921875 9.12996094 9.3359375 9.87304688 C9.95319387 11.28116297 10.56626476 12.69112242 11.17480469 14.10302734 C11.85600651 15.66898539 12.56845279 17.22131221 13.2890625 18.76953125 C14.09361205 21.29369496 13.90909771 22.54543618 13 25 C10.87283982 20.31572174 8.85564503 15.63569418 7.0625 10.8125 C5.33907459 6.41124228 3.24063961 3.42067515 0 0 Z " fill="#070707" transform="translate(322,65)"/>
<path d="M0 0 C0.66 0.33 1.32 0.66 2 1 C-3.18678815 13.66970387 -3.18678815 13.66970387 -6 19 C-7 16 -7 16 -7 13 C-6.34 13 -5.68 13 -5 13 C-5.33 9.7 -5.66 6.4 -6 3 C-4.02 3 -2.04 3 0 3 C0 2.01 0 1.02 0 0 Z " fill="#9681C3" transform="translate(172,33)"/>
<path d="M0 0 C4.44354149 1.21187495 7.12415607 2.35930396 10 6 C10.86481274 10.39706738 10.77040906 14.58968726 10 19 C8.20465628 21.60480505 6.81508802 22.41651299 4 24 C3.34 23.67 2.68 23.34 2 23 C2.804375 22.360625 3.60875 21.72125 4.4375 21.0625 C7.65648131 17.21542478 8.34704974 13.9743796 8 9 C6.74876076 5.61249864 6.17073513 5.09561167 2.875 3.25 C1.92625 2.8375 0.9775 2.425 0 2 C0 1.34 0 0.68 0 0 Z " fill="#040404" transform="translate(669,152)"/>
<path d="M0 0 C0.33 0 0.66 0 1 0 C1 8.58 1 17.16 1 26 C2.98 26 4.96 26 7 26 C7.33 26.66 7.66 27.32 8 28 C5.03 28 2.06 28 -1 28 C-1.1598655 18.62122392 -0.66433182 9.34809779 0 0 Z " fill="#060606" transform="translate(402,160)"/>
<path d="M0 0 C0.66 0.99 1.32 1.98 2 3 C1.61621094 4.89770508 1.61621094 4.89770508 0.734375 7.01953125 C0.26451172 8.18258789 0.26451172 8.18258789 -0.21484375 9.36914062 C-0.55644531 10.17544922 -0.89804687 10.98175781 -1.25 11.8125 C-1.90224031 13.40185238 -2.55330692 14.99168699 -3.203125 16.58203125 C-3.51443359 17.33564941 -3.82574219 18.08926758 -4.14648438 18.86572266 C-5.21622103 21.54067627 -6.13306355 24.25322687 -7 27 C-7.99 26.67 -8.98 26.34 -10 26 C-6.9023485 17.2354684 -3.48761601 8.61441155 0 0 Z " fill="#080808" transform="translate(551,122)"/>
<path d="M0 0 C-0.99 0.495 -0.99 0.495 -2 1 C-2.33 1.66 -2.66 2.32 -3 3 C-6.29150026 4.52384271 -9.55931072 5.85310357 -13 7 C-13.33 7.99 -13.66 8.98 -14 10 C-14.66 10 -15.32 10 -16 10 C-16.309375 10.78375 -16.61875 11.5675 -16.9375 12.375 C-18 15 -18 15 -19 17 C-19.66 17 -20.32 17 -21 17 C-18.50407634 9.85258224 -13.39821453 3.93502786 -6.6875 0.375 C-3 -1 -3 -1 0 0 Z " fill="#070707" transform="translate(894,100)"/>
<path d="M0 0 C0.66 0 1.32 0 2 0 C2.99 1.98 3.98 3.96 5 6 C10.28 6 15.56 6 21 6 C21.33 6.99 21.66 7.98 22 9 C19.39576408 9.02697137 16.79180756 9.04682489 14.1875 9.0625 C13.44951172 9.07087891 12.71152344 9.07925781 11.95117188 9.08789062 C8.70077932 9.10259828 6.10595105 9.03531702 3 8 C0.92469613 5.07920195 0 3.62453269 0 0 Z " fill="#020202" transform="translate(976,166)"/>
<path d="M0 0 C6.89237939 0.14664637 11.21329076 3.13936475 16 8 C17.71595551 10.63357878 18.81582758 13.06531182 20 16 C19.34 16.66 18.68 17.32 18 18 C17.505 15.525 17.505 15.525 17 13 C16.34 13 15.68 13 15 13 C14.608125 12.278125 14.21625 11.55625 13.8125 10.8125 C10.57019066 5.78133033 5.63680987 2.87893662 0 1 C0 0.67 0 0.34 0 0 Z " fill="#070707" transform="translate(755,100)"/>
<path d="M0 0 C0 6.35186341 -6.0982143 11.19572487 -10.35620117 15.49023438 C-12.55542965 17.67638273 -14.7719044 19.84326689 -17 22 C-17.66 21.67 -18.32 21.34 -19 21 C-16.36 18.36 -13.72 15.72 -11 13 C-11.33 12.34 -11.66 11.68 -12 11 C-11.34 11 -10.68 11 -10 11 C-9.67 10.01 -9.34 9.02 -9 8 C-8.67 8.66 -8.34 9.32 -8 10 C-7.4225 9.278125 -6.845 8.55625 -6.25 7.8125 C-4.16666667 5.20833333 -2.08333333 2.60416667 0 0 Z " fill="#9885BC" transform="translate(159,60)"/>
<path d="M0 0 C2.08326131 -0.02709444 4.16662441 -0.04643873 6.25 -0.0625 C7.41015625 -0.07410156 8.5703125 -0.08570312 9.765625 -0.09765625 C12.40977128 -0.01782092 14.49826091 0.21356222 17 1 C15.70700306 3.88437779 14.34058637 5.87219421 12 8 C12 5 12 5 13 3 C6.07 2.505 6.07 2.505 -1 2 C-0.67 1.34 -0.34 0.68 0 0 Z " fill="#020202" transform="translate(845,99)"/>
<path d="M0 0 C0.33 0 0.66 0 1 0 C1 3.3 1 6.6 1 10 C4.3 10 7.6 10 11 10 C11 10.66 11 11.32 11 12 C7.04 12 3.08 12 -1 12 C-1.09765625 3.50390625 -1.09765625 3.50390625 -1 1 C-0.67 0.67 -0.34 0.34 0 0 Z " fill="#080808" transform="translate(563,176)"/>
<path d="M0 0 C1.27230469 0.00902344 2.54460938 0.01804688 3.85546875 0.02734375 C5.31919922 0.04474609 5.31919922 0.04474609 6.8125 0.0625 C6.4825 0.7225 6.1525 1.3825 5.8125 2.0625 C3.18851275 2.54282309 0.64606365 2.90506801 -2 3.1875 C-2.72509766 3.27386719 -3.45019531 3.36023438 -4.19726562 3.44921875 C-7.55810612 3.83665324 -10.80008025 4.0625 -14.1875 4.0625 C-9.41204416 0.2750695 -6.04880964 -0.05549367 0 0 Z " fill="#050506" transform="translate(905.1875,144.9375)"/>
<path d="M0 0 C-1 2 -1 2 -4.3125 3.3125 C-8.75076374 5.1458932 -10.98590036 7.6483379 -12.90625 12.1015625 C-13.65012306 14.05078542 -14.33020271 16.024098 -15 18 C-15.76170685 15.74494682 -16.10826447 14.39325478 -15.46875 12.0703125 C-12.42738406 5.96305348 -7.7676498 -1.41229996 0 0 Z " fill="#070707" transform="translate(739,113)"/>
<path d="M0 0 C0.33 0.66 0.66 1.32 1 2 C1.66 2 2.32 2 3 2 C3.67528223 3.57967807 4.33989694 5.16391903 5 6.75 C5.37125 7.63171875 5.7425 8.5134375 6.125 9.421875 C7 12 7 12 7 16 C6.34 16 5.68 16 5 16 C4.1605118 13.89828133 3.32860344 11.79353375 2.5 9.6875 C2.0359375 8.51574219 1.571875 7.34398437 1.09375 6.13671875 C0 3 0 3 0 0 Z " fill="#B198E3" transform="translate(165,202)"/>
<path d="M0 0 C0.99 0 1.98 0 3 0 C4.97265625 2.046875 4.97265625 2.046875 7.0625 4.75 C7.75472656 5.63171875 8.44695313 6.5134375 9.16015625 7.421875 C10.6977923 9.57652425 11.91578282 11.59562201 13 14 C9.98385187 12.8829081 8.35491331 11.3874224 6.375 8.9375 C4.32880603 5.99175287 4.32880603 5.99175287 2 5 C1.27840576 3.35636866 0.60648579 1.68949614 0 0 Z " fill="#060606" transform="translate(832,147)"/>
<path d="M0 0 C0.33 0 0.66 0 1 0 C1.19384179 2.81219705 1.38036603 5.62454196 1.5625 8.4375 C1.61857422 9.23994141 1.67464844 10.04238281 1.73242188 10.86914062 C1.8616295 12.91062111 1.9351273 14.95546369 2 17 C1.67 17.33 1.34 17.66 1 18 C0.63239269 20.32817964 0.29758419 22.6618385 0 25 C-0.33 25 -0.66 25 -1 25 C-1.18451025 8.29157175 -1.18451025 8.29157175 0 0 Z " fill="#010101" transform="translate(723,71)"/>
<path d="M0 0 C0.66 0.33 1.32 0.66 2 1 C2.3690205 17.8929385 2.3690205 17.8929385 0 25 C-1.4049404 21.10939581 -0.69513239 17.76907638 -0.0625 13.75 C0.13214844 12.48671875 0.32679688 11.2234375 0.52734375 9.921875 C0.68332031 8.95765625 0.83929688 7.9934375 1 7 C0.34 7 -0.32 7 -1 7 C-0.67 4.69 -0.34 2.38 0 0 Z " fill="#A18DCC" transform="translate(176,3)"/>
<path d="M0 0 C2 3.75 2 3.75 2 6 C7.445 5.505 7.445 5.505 13 5 C13 5.99 13 6.98 13 8 C11.02090602 8.02686553 9.04171029 8.04633375 7.0625 8.0625 C5.96035156 8.07410156 4.85820313 8.08570313 3.72265625 8.09765625 C1 8 1 8 0 7 C-0.04092937 4.66702567 -0.04241723 2.33294775 0 0 Z " fill="#060606" transform="translate(923,180)"/>
<path d="M0 0 C0.33 0.66 0.66 1.32 1 2 C-0.81477069 3.81477069 -2.63876942 5.60683095 -4.5 7.375 C-6.81232202 9.80293812 -8.4078499 12.06709192 -10 15 C-10.66 14.67 -11.32 14.34 -12 14 C-9.26512639 7.8105492 -5.49503811 3.86687867 0 0 Z " fill="#060606" transform="translate(882,139)"/>
<path d="M0 0 C0.99 0.495 0.99 0.495 2 1 C2 3.97 2 6.94 2 10 C4.31 10 6.62 10 9 10 C7 12 7 12 3.375 12.125 C2.26125 12.08375 1.1475 12.0425 0 12 C0 8.04 0 4.08 0 0 Z " fill="#090909" transform="translate(947,102)"/>
<path d="M0 0 C5.61 0 11.22 0 17 0 C17 0.33 17 0.66 17 1 C11.72 1.66 6.44 2.32 1 3 C0.67 3.99 0.34 4.98 0 6 C0 4.02 0 2.04 0 0 Z " fill="#232324" transform="translate(472,64)"/>
<path d="M0 0 C0.33 1.32 0.66 2.64 1 4 C-3.62 4 -8.24 4 -13 4 C-13 3.01 -13 2.02 -13 1 C-11.71802734 1.01740234 -11.71802734 1.01740234 -10.41015625 1.03515625 C-8.75306641 1.04869141 -8.75306641 1.04869141 -7.0625 1.0625 C-5.40927734 1.07990234 -5.40927734 1.07990234 -3.72265625 1.09765625 C-1.08552366 1.31262571 -1.08552366 1.31262571 0 0 Z " fill="#060606" transform="translate(722,184)"/>
<path d="M0 0 C3.35620271 1.38877354 5.07298728 2.91677965 7 6 C7 6.66 7 7.32 7 8 C4.69 7.67 2.38 7.34 0 7 C0 4.69 0 2.38 0 0 Z " fill="#B79FE8" transform="translate(149,179)"/>
<path d="M0 0 C0.66 0 1.32 0 2 0 C2.4125 0.886875 2.825 1.77375 3.25 2.6875 C4.90127288 5.81312366 6.71331259 8.31905614 9 11 C5.6263114 10.39755561 3.40171576 9.48453354 1 7 C0.25 3.3125 0.25 3.3125 0 0 Z " fill="#050505" transform="translate(884,166)"/>
<path d="M0 0 C0.33 0 0.66 0 1 0 C1.33 5.94 1.66 11.88 2 18 C3.65 18 5.3 18 7 18 C6.34 18.66 5.68 19.32 5 20 C3.35 20 1.7 20 0 20 C0 13.4 0 6.8 0 0 Z " fill="#060606" transform="translate(761,168)"/>
<path d="M0 0 C1.32 0 2.64 0 4 0 C5.98 3.96 7.96 7.92 10 12 C9.01 12 8.02 12 7 12 C6.61908203 11.16855469 6.61908203 11.16855469 6.23046875 10.3203125 C5.88628906 9.59585938 5.54210937 8.87140625 5.1875 8.125 C4.85105469 7.40570313 4.51460937 6.68640625 4.16796875 5.9453125 C3.00532903 3.69457194 3.00532903 3.69457194 0 2 C0 1.34 0 0.68 0 0 Z " fill="#050505" transform="translate(913,114)"/>
<path d="M0 0 C6.44541485 6.26637555 6.44541485 6.26637555 9 10 C8.67 10.99 8.34 11.98 8 13 C3.99027798 9.32442148 1.54664585 5.81033104 -1 1 C-0.67 0.67 -0.34 0.34 0 0 Z " fill="#060606" transform="translate(845,161)"/>
<path d="M0 0 C0.99 0.33 1.98 0.66 3 1 C1.8553125 1.185625 1.8553125 1.185625 0.6875 1.375 C-3.19461823 3.7223273 -3.42971619 6.63193166 -4.51953125 10.8828125 C-4.75736328 11.93082031 -4.75736328 11.93082031 -5 13 C-5.33 13 -5.66 13 -6 13 C-6.49079755 5.63803681 -6.49079755 5.63803681 -4.125 2.5625 C-2 1 -2 1 0 0 Z " fill="#0A0A0A" transform="translate(651,113)"/>
<path d="M0 0 C0.33 0 0.66 0 1 0 C1 1.65 1 3.3 1 5 C0.34 5 -0.32 5 -1 5 C-1.12117187 5.61488281 -1.24234375 6.22976562 -1.3671875 6.86328125 C-1.53476562 7.67152344 -1.70234375 8.47976562 -1.875 9.3125 C-2.03742187 10.11300781 -2.19984375 10.91351563 -2.3671875 11.73828125 C-3 14 -3 14 -5 17 C-6 15 -6 15 -5.0390625 11.77734375 C-4.57549966 10.49455347 -4.1037858 9.21468659 -3.625 7.9375 C-3.39039063 7.28716797 -3.15578125 6.63683594 -2.9140625 5.96679688 C-1.14959206 1.14959206 -1.14959206 1.14959206 0 0 Z " fill="#080808" transform="translate(557,70)"/>
<path d="M0 0 C4 1.33333333 8 2.66666667 12 4 C12 4.66 12 5.32 12 6 C12.66 6.33 13.32 6.66 14 7 C12.68 7 11.36 7 10 7 C10 6.34 10 5.68 10 5 C8.68 5.33 7.36 5.66 6 6 C5.67 5.01 5.34 4.02 5 3 C2.49552484 1.78130071 2.49552484 1.78130071 0 1 C0 0.67 0 0.34 0 0 Z " fill="#A48ADB" transform="translate(112,153)"/>
<path d="M0 0 C2.91308822 1.45654411 3.05452316 3.35387648 4.125 6.375 C4.47820312 7.35210937 4.83140625 8.32921875 5.1953125 9.3359375 C6 12 6 12 6 15 C5.34 15 4.68 15 4 15 C3.32532438 13.25307205 2.66055844 11.50231475 2 9.75 C1.62875 8.77546875 1.2575 7.8009375 0.875 6.796875 C0 4 0 4 0 0 Z " fill="#080808" transform="translate(496,123)"/>
<path d="M0 0 C0.66 0 1.32 0 2 0 C1.67 7.59 1.34 15.18 1 23 C0.67 23 0.34 23 0 23 C-0.19588601 19.3545658 -0.38030536 15.7086421 -0.5625 12.0625 C-0.61857422 11.02158203 -0.67464844 9.98066406 -0.73242188 8.90820312 C-0.78076172 7.91884766 -0.82910156 6.92949219 -0.87890625 5.91015625 C-0.9260376 4.99371338 -0.97316895 4.07727051 -1.02172852 3.13305664 C-1 1 -1 1 0 0 Z " fill="#080808" transform="translate(612,100)"/>
<path d="M0 0 C0.66 0.66 1.32 1.32 2 2 C1.154375 2.4125 0.30875 2.825 -0.5625 3.25 C-4.11713583 5.05963279 -7.55033514 6.99919438 -11 9 C-9.5039904 5.19197555 -7.33936849 3.30575443 -4 1 C-1.8125 0.125 -1.8125 0.125 0 0 Z " fill="#A988D9" transform="translate(139,81)"/>
<path d="M0 0 C4.95 0 9.9 0 15 0 C15 0.33 15 0.66 15 1 C10.38 1.66 5.76 2.32 1 3 C0.67 2.01 0.34 1.02 0 0 Z " fill="#0B0B0B" transform="translate(976,113)"/>
<path d="M0 0 C0.66 0 1.32 0 2 0 C2.19294408 4.82360189 1.75747614 8.49646738 0 13 C-0.33 13 -0.66 13 -1 13 C-0.67 8.71 -0.34 4.42 0 0 Z " fill="#C2AAEE" transform="translate(175,10)"/>
<path d="M0 0 C2.47859908 2.2008849 3.61210366 4.06372969 4.6875 7.1875 C4.93886719 7.90292969 5.19023437 8.61835937 5.44921875 9.35546875 C5.63097656 9.89816406 5.81273437 10.44085938 6 11 C5.01 11 4.02 11 3 11 C0 4.5 0 4.5 0 0 Z " fill="#080808" transform="translate(336,91)"/>
<path d="M0 0 C1.65 0 3.3 0 5 0 C4.01 2.97 3.02 5.94 2 9 C1.67 9 1.34 9 1 9 C0.67 6.03 0.34 3.06 0 0 Z " fill="#BFA5F5" transform="translate(166,36)"/>
<path d="M0 0 C0.66 0.66 1.32 1.32 2 2 C1.71125 2.495 1.4225 2.99 1.125 3.5 C-0.41288416 6.91752035 -1.14847805 10.3506202 -2 14 C-3.10197415 10.69407756 -3.27741701 8.46771262 -3 5 C-1.5 2.125 -1.5 2.125 0 0 Z " fill="#040404" transform="translate(886,152)"/>
<path d="M0 0 C0.93045933 2.55144824 1.08564091 3.74006478 0.22265625 6.359375 C-0.16019531 7.14828125 -0.54304687 7.9371875 -0.9375 8.75 C-1.50791016 9.94882813 -1.50791016 9.94882813 -2.08984375 11.171875 C-2.39019531 11.77515625 -2.69054687 12.3784375 -3 13 C-3.93045933 10.44855176 -4.08564091 9.25993522 -3.22265625 6.640625 C-2.83980469 5.85171875 -2.45695313 5.0628125 -2.0625 4.25 C-1.68222656 3.45078125 -1.30195312 2.6515625 -0.91015625 1.828125 C-0.60980469 1.22484375 -0.30945313 0.6215625 0 0 Z " fill="#090909" transform="translate(549,93)"/>
<path d="M0 0 C0.33 0.99 0.66 1.98 1 3 C-0.14453125 5.0078125 -0.14453125 5.0078125 -1.8125 7.125 C-2.62654297 8.18074219 -2.62654297 8.18074219 -3.45703125 9.2578125 C-5 11 -5 11 -7 12 C-6.38801624 8.56049636 -5.07941153 6.48435515 -2.9375 3.75 C-2.38964844 3.04359375 -1.84179688 2.3371875 -1.27734375 1.609375 C-0.85582031 1.07828125 -0.43429688 0.5471875 0 0 Z " fill="#B99FE8" transform="translate(157,59)"/>
<path d="M0 0 C0.66 0 1.32 0 2 0 C2.33 1.65 2.66 3.3 3 5 C0.08517222 5.80967438 -1.46113217 6.21845993 -4.3125 5.0625 C-4.869375 4.711875 -5.42625 4.36125 -6 4 C-4.35 3.67 -2.7 3.34 -1 3 C-0.67 2.01 -0.34 1.02 0 0 Z " fill="#020202" transform="translate(861,183)"/>
<path d="M0 0 C0.66 0 1.32 0 2 0 C2 1.32 2 2.64 2 4 C4.31 4.33 6.62 4.66 9 5 C7.3125 6.125 7.3125 6.125 5 7 C2.25 6.125 2.25 6.125 0 5 C0 3.35 0 1.7 0 0 Z " fill="#050505" transform="translate(872,118)"/>
<path d="M0 0 C0.66 0 1.32 0 2 0 C2.680625 1.423125 2.680625 1.423125 3.375 2.875 C4.80238254 6.00313679 4.80238254 6.00313679 7 8 C5.68 8 4.36 8 3 8 C0.82542733 5.12645755 0 3.63563409 0 0 Z " fill="#080808" transform="translate(976,166)"/>
<path d="M0 0 C0.99 0.33 1.98 0.66 3 1 C1.6875 3 1.6875 3 0 5 C-0.99 5 -1.98 5 -3 5 C-3 5.66 -3 6.32 -3 7 C-3.66 7 -4.32 7 -5 7 C-3.70700306 4.11562221 -2.34058637 2.12780579 0 0 Z " fill="#080808" transform="translate(730,103)"/>
<path d="M0 0 C2.76223278 2.76223278 2.57856291 5.20706617 3 9 C2.34 9 1.68 9 1 9 C-0.4783226 6.04335481 -0.06032783 3.25770263 0 0 Z " fill="#A795D5" transform="translate(169,209)"/>
<path d="M0 0 C0.99 0.99 1.98 1.98 3 3 C1.8125 4.5625 1.8125 4.5625 0 6 C-2.6875 5.6875 -2.6875 5.6875 -5 5 C-4.01 4.01 -3.02 3.02 -2 2 C-1.01 2.66 -0.02 3.32 1 4 C0.67 2.68 0.34 1.36 0 0 Z " fill="#8E72CB" transform="translate(155,183)"/>
<path d="M0 0 C0.66 0.33 1.32 0.66 2 1 C0.68 3.31 -0.64 5.62 -2 8 C-2.66 8 -3.32 8 -4 8 C-2.87548273 5.0280615 -1.77706209 2.66559313 0 0 Z " fill="#050505" transform="translate(920,163)"/>
<path d="M0 0 C1.32 0.33 2.64 0.66 4 1 C4.33 2.32 4.66 3.64 5 5 C1 5 1 5 -2 4 C-1.34 3.67 -0.68 3.34 0 3 C0 2.01 0 1.02 0 0 Z " fill="#9861D2" transform="translate(103,147)"/>
<path d="M0 0 C0.6875 1.6875 0.6875 1.6875 1 4 C-0.4375 6.75 -0.4375 6.75 -2 9 C-2.6875 7.3125 -2.6875 7.3125 -3 5 C-1.5625 2.25 -1.5625 2.25 0 0 Z " fill="#8C6CCE" transform="translate(157,54)"/>
<path d="" fill="#000000" transform="translate(0,0)"/>
</svg>
